<svg xmlns="http://www.w3.org/2000/svg" xmlns:xlink="http://www.w3.org/1999/xlink" width="192" height="192" viewBox="0 0 192 192">
  <defs>
    <clipPath id="clip-logo">
      <rect width="192" height="192"/>
    </clipPath>
  </defs>
  <g id="logo" clip-path="url(#clip-logo)">
    <rect id="Rectangle_42" data-name="Rectangle 42" width="192" height="192" fill="#fff"/>
    <path id="H" d="M127.347,160H94.694v-8.528c6.9,0,10.321-3.4,11.837-6.5s1.633-10.77,1.633-18.68V88.934H51.837v37.36c0,7.91.117,15.587,1.633,18.68s4.933,6.5,11.837,6.5V160H0v-8.528c6.9,0,10.321-3.4,11.837-6.5s1.633-10.77,1.633-18.68V88.934h0V80h0V71.066h0V33.705c0-7.91-.117-15.587-1.633-18.68S6.9,8.528,0,8.528V0H65.306V8.528c-6.9,0-10.32,3.4-11.837,6.5s-1.633,10.77-1.633,18.68v37.36h56.327V33.705c0-7.91-.116-15.587-1.633-18.68s-4.933-6.5-11.837-6.5V0H160V8.528c-6.9,0-10.32,3.4-11.836,6.5s-1.633,10.77-1.633,18.68v37.36h0V80h0v8.933h0v37.36c0,7.91.116,15.587,1.633,18.68s4.933,6.5,11.836,6.5V160Z" transform="translate(16 16)" fill="#1f1f1f" stroke="rgba(0,0,0,0)" stroke-miterlimit="10" stroke-width="1"/>
  </g>
</svg>
