<svg id="_512x512" data-name="512x512" xmlns="http://www.w3.org/2000/svg" width="512" height="512" viewBox="0 0 512 512">
  <rect id="Rectangle_45" data-name="Rectangle 45" width="512" height="512" fill="#fff"/>
  <g id="Subtraction_2" data-name="Subtraction 2" transform="translate(64 64)" fill="#1f1f1f" stroke-linejoin="round" stroke-miterlimit="10">
    <path d="M 156.7362213134766 400.0010986328125 L 78.36978912353516 399.998779296875 L 0.0009140624897554517 399.998779296875 L -15.99908638000488 399.998779296875 L -15.99908638000488 383.998779296875 L -15.99908638000488 363.5326538085938 L -15.99908638000488 347.5372924804688 L -0.003710937453433871 347.5326538085938 C 4.375601768493652 347.5314025878906 7.856789112091064 346.7124633789062 10.34316444396973 345.0986022949219 C 11.91628932952881 344.0772399902344 13.1955394744873 342.6244812011719 14.04122638702393 340.8982849121094 C 16.32991409301758 335.5742797851562 16.32991409301758 311.9866027832031 16.32991409301758 303.1067810058594 L 16.32991409301758 213.4420318603516 L 16.32991409301758 191.9994201660156 L 16.32991409301758 170.5598449707031 L 16.32991409301758 80.89447784423828 C 16.32991409301758 72.01322937011719 16.32991409301758 48.42160034179688 14.01316452026367 43.03672790527344 C 13.19822692871094 41.37691497802734 11.91835117340088 39.92341232299805 10.3439769744873 38.90141296386719 C 7.857851505279541 37.28778839111328 4.37835168838501 36.4692268371582 0.003226562403142452 36.4692268371582 L -15.9967737197876 36.4692268371582 L -15.9967737197876 20.4692268371582 L -15.9967737197876 0.0008515624795109034 L -15.9967737197876 -15.99914836883545 L 0.003226562403142452 -15.99914836883545 L 78.37029266357422 -15.99914836883545 L 156.7367248535156 -15.99914836883545 L 172.7367248535156 -15.99914836883545 L 172.7367248535156 0.0008515624795109034 L 172.7367248535156 20.4692268371582 L 172.7367248535156 36.46429061889648 L 156.7416687011719 36.4692268371582 C 152.3620452880859 36.47060012817383 148.8807830810547 37.28935241699219 146.3946075439453 38.90272521972656 C 144.8220977783203 39.92360305786133 143.54248046875 41.37666320800781 142.6961669921875 43.10341262817383 C 140.4107208251953 48.42247772216797 140.4107208251953 72.01347351074219 140.4107208251953 80.89447784423828 L 140.4107208251953 154.5576019287109 L 156.7367248535156 154.5576019287109 L 192.0019836425781 154.5598449707031 L 227.2676086425781 154.5598449707031 L 243.5935363769531 154.5587158203125 L 243.5935363769531 80.89447784423828 C 243.5935363769531 72.0140380859375 243.5935363769531 48.42460250854492 241.2784118652344 43.03997802734375 C 240.4613494873047 41.37503814697266 239.1829833984375 39.92291259765625 237.6102905273438 38.90216445922852 C 235.1229095458984 37.2879753112793 231.6428527832031 36.4692268371582 227.2676086425781 36.4692268371582 L 211.2676086425781 36.4692268371582 L 211.2676086425781 20.4692268371582 L 211.2676086425781 0.0008515624795109034 L 211.2676086425781 -15.99914836883545 L 227.2676086425781 -15.99914836883545 L 305.63623046875 -15.99914836883545 L 384.0010986328125 -15.99914836883545 L 400.0010986328125 -15.99914836883545 L 400.0010986328125 0.0008515624795109034 L 400.0010986328125 20.4692268371582 L 400.0010986328125 36.46429061889648 L 384.0060424804688 36.4692268371582 C 379.6265869140625 36.47060012817383 376.1459045410156 37.28916549682617 373.6606140136719 38.90222549438477 C 372.0884704589844 39.92303848266602 370.8085327148438 41.37666320800781 369.961669921875 43.10435104370117 C 367.6767883300781 48.42441558837891 367.6767883300781 72.01397705078125 367.6767883300781 80.89447784423828 L 367.6767883300781 170.5576019287109 L 367.6767883300781 192.0017242431641 L 367.6767883300781 213.4420318603516 L 367.6767883300781 303.1067810058594 C 367.6767883300781 311.9866638183594 367.6767883300781 335.5746154785156 369.9913635253906 340.958740234375 C 370.8090515136719 342.6249694824219 372.0880432128906 344.0776672363281 373.6619873046875 345.099609375 C 376.1487121582031 346.7137756347656 379.6276550292969 347.5326538085938 384.0010986328125 347.5326538085938 L 400.0010986328125 347.5326538085938 L 400.0010986328125 363.5326538085938 L 400.0010986328125 383.9957275390625 L 400.0010986328125 399.9950866699219 L 384.0017395019531 399.9957275390625 L 305.6368408203125 399.998779296875 L 227.2676086425781 399.998779296875 L 211.2676086425781 399.998779296875 L 211.2676086425781 383.998779296875 L 211.2676086425781 363.5326538085938 L 211.2676086425781 347.5372924804688 L 227.2629699707031 347.5326538085938 C 231.6423492431641 347.5314025878906 235.1234741210938 346.7124633789062 237.6097869873047 345.0986022949219 C 239.1821594238281 344.0777282714844 240.4612274169922 342.6249084472656 241.3071594238281 340.8982238769531 C 243.5935363769531 335.5744018554688 243.5935363769531 311.9866027832031 243.5935363769531 303.1067810058594 L 243.5935363769531 229.4420318603516 L 227.2676086425781 229.4420318603516 L 192.0009765625 229.4420318603516 L 156.7367248535156 229.4420318603516 L 140.4107208251953 229.4420318603516 L 140.4107208251953 303.1067810058594 C 140.4107208251953 311.9866027832031 140.4107208251953 335.5743408203125 142.7254180908203 340.958740234375 C 143.5430450439453 342.6235961914062 144.8231048583984 344.0778503417969 146.3970947265625 345.099853515625 C 148.8834838867188 346.7137756347656 152.3627319335938 347.5326538085938 156.7367248535156 347.5326538085938 L 172.7367248535156 347.5326538085938 L 172.7367248535156 363.5326538085938 L 172.7367248535156 383.998779296875 L 172.7367248535156 399.9992980957031 L 156.7362213134766 400.0010986328125 Z" stroke="none"/>
    <path d="M 156.7367248535156 384.0010986328125 L 156.7374725341797 384.0000915527344 L 156.7367248535156 383.9987182617188 L 156.7367248535156 363.53271484375 C 149.2192230224609 363.53271484375 142.8089752197266 361.8459777832031 137.6839752197266 358.5192260742188 C 133.6846008300781 355.9224853515625 130.4496002197266 352.2633666992188 128.328857421875 347.9374694824219 C 124.7104797363281 340.5596008300781 124.4107284545898 322.5216064453125 124.4107284545898 303.1067199707031 L 124.4107284545898 213.4419708251953 L 156.7367248535156 213.4419708251953 L 192.0009765625 213.4419708251953 L 227.2676086425781 213.4419708251953 L 259.5935974121094 213.4419708251953 L 259.5935974121094 303.1067199707031 C 259.5935974121094 322.5216064453125 259.2938537597656 340.5596008300781 255.6754760742188 347.9374694824219 C 253.5564727783203 352.2627258300781 250.3218536376953 355.9217224121094 246.3211059570312 358.5192260742188 C 241.1983489990234 361.844482421875 234.7940979003906 363.5304870605469 227.2862243652344 363.5304870605469 L 227.2676086425781 363.53271484375 L 227.2676086425781 383.9987182617188 L 305.63623046875 383.9987182617188 L 384.0010986328125 383.9957275390625 L 384.0010986328125 363.53271484375 C 376.4841003417969 363.53271484375 370.07421875 361.8459777832031 364.9490966796875 358.5192260742188 C 360.9483642578125 355.9217224121094 357.7135925292969 352.2627258300781 355.5948486328125 347.9374694824219 C 351.9763488769531 340.5594787597656 351.6767272949219 322.5216064453125 351.6767272949219 303.1067199707031 L 351.6767272949219 213.4419708251953 L 351.6767272949219 192.0017242431641 L 351.6767272949219 170.5576019287109 L 351.6767272949219 80.89447784423828 C 351.6767272949219 61.4797248840332 351.9763488769531 43.44172668457031 355.5948486328125 36.06210327148438 C 357.714599609375 31.73747634887695 360.9496154785156 28.0786018371582 364.9498596191406 25.48122596740723 C 370.0714721679688 22.1569766998291 376.4749755859375 20.47160148620605 383.9826049804688 20.47160148620605 L 384.0010986328125 20.4692268371582 L 384.0010986328125 0.0008515624795109034 L 305.63623046875 0.0008515624795109034 L 227.2676086425781 0.0008515624795109034 L 227.2676086425781 20.4692268371582 C 234.7859802246094 20.4692268371582 241.1964721679688 22.15547561645508 246.3211059570312 25.48122596740723 C 250.3215942382812 28.07785224914551 253.5563507080078 31.73660087585449 255.6754760742188 36.06210327148438 C 259.2938537597656 43.44160079956055 259.5935974121094 61.4796028137207 259.5935974121094 80.89447784423828 L 259.5935974121094 170.5576019287109 L 227.2676086425781 170.5598449707031 L 192.0009765625 170.5598449707031 L 156.7367248535156 170.5576019287109 L 124.4107284545898 170.5576019287109 L 124.4107284545898 80.89447784423828 C 124.4107284545898 61.48222732543945 124.7104797363281 43.44622802734375 128.328857421875 36.06210327148438 C 130.4483489990234 31.73747634887695 133.6834716796875 28.07872581481934 137.6847229003906 25.48122596740723 C 142.8070983886719 22.1569766998291 149.2108459472656 20.47160148620605 156.7181091308594 20.47160148620605 L 156.7367248535156 20.4692268371582 L 156.7367248535156 0.0008515624795109034 L 78.37035369873047 0.0008515624795109034 L 0.003226562403142452 0.0008515624795109034 L 0.003226562403142452 20.4692268371582 C 7.521726608276367 20.4692268371582 13.93197631835938 22.15547561645508 19.05597686767578 25.48122596740723 C 23.05660247802734 28.0783519744873 26.29172706604004 31.73710250854492 28.41185188293457 36.06210327148438 C 32.03022766113281 43.44785308837891 32.32997512817383 61.48322677612305 32.32997512817383 80.89447784423828 L 32.32997512817383 170.5598449707031 L 32.32997512817383 191.9994812011719 L 32.32997512817383 213.4419708251953 L 32.32997512817383 303.1067199707031 C 32.32997512817383 322.5182189941406 32.03010177612305 340.5537414550781 28.40960121154785 347.9374694824219 C 26.29085159301758 352.2621154785156 23.05585098266602 355.9212341308594 19.05447578430176 358.5192260742188 C 13.93160152435303 361.844482421875 7.527351379394531 363.5304870605469 0.01947656273841858 363.5304870605469 L 0.0008515624795109034 363.53271484375 L 0.0008515624795109034 383.9987182617188 L 78.37035369873047 383.9987182617188 L 156.7343444824219 384.0010986328125 L 156.7367248535156 384.0010986328125 M 156.7366638183594 416.0010986328125 C 156.7361450195312 416.0010986328125 156.7362518310547 416.0010986328125 156.7357330322266 416.0010986328125 L 78.36935424804688 415.9987182617188 L 0.0008515624795109034 415.9987182617188 C -17.67227363586426 415.9987182617188 -31.99914932250977 401.6718444824219 -31.99914932250977 383.9987182617188 L -31.99914932250977 363.53271484375 C -31.99914932250977 346.0197143554688 -17.93021774291992 331.7918090820312 -0.4768126010894775 331.5362243652344 C 0.3299994170665741 323.3350524902344 0.3299765586853027 308.6202392578125 0.3299765586853027 303.1067199707031 L 0.3299765586853027 213.4419708251953 L 0.3299765586853027 191.9994812011719 L 0.3299765586853027 170.5598449707031 L 0.3299765586853027 80.89447784423828 C 0.3299765586853027 75.38147735595703 0.3299160897731781 60.66993713378906 -0.4761727154254913 52.46570205688477 C -17.92885589599609 52.21009063720703 -31.99677276611328 37.98270797729492 -31.99677276611328 20.4692268371582 L -31.99677276611328 0.0008515624795109034 C -31.99677276611328 -17.67227363586426 -17.66989898681641 -31.99914932250977 0.003226562403142452 -31.99914932250977 L 78.37035369873047 -31.99914932250977 L 156.7367248535156 -31.99914932250977 C 174.4098510742188 -31.99914932250977 188.7367248535156 -17.67227363586426 188.7367248535156 0.0008515624795109034 L 188.7367248535156 20.4692268371582 C 188.7367248535156 37.98089981079102 174.6684875488281 52.20804977416992 157.2168273925781 52.46569442749023 C 156.4108123779297 60.66983032226562 156.4107208251953 75.38147735595703 156.4107208251953 80.89447784423828 L 156.4107208251953 138.5576019287109 L 156.7367248535156 138.5576019287109 L 192.0029754638672 138.5598449707031 L 227.2676086425781 138.5598449707031 L 227.5935974121094 138.5598297119141 L 227.5935974121094 80.89447784423828 C 227.5935974121094 75.38116455078125 227.5936584472656 60.66927337646484 226.7877960205078 52.46569442749023 C 209.3365936279297 52.20838165283203 195.2676086425781 37.98162841796875 195.2676086425781 20.4692268371582 L 195.2676086425781 0.0008515624795109034 C 195.2676086425781 -17.67227363586426 209.594482421875 -31.99914932250977 227.2676086425781 -31.99914932250977 L 305.63623046875 -31.99914932250977 L 384.0010986328125 -31.99914932250977 C 401.6742248535156 -31.99914932250977 416.0010986328125 -17.67227363586426 416.0010986328125 0.0008515624795109034 L 416.0010986328125 20.4692268371582 C 416.0010986328125 37.98089981079102 401.9341430664062 52.20803070068359 384.4824829101562 52.46567535400391 C 383.6766662597656 60.66912078857422 383.6767272949219 75.38106536865234 383.6767272949219 80.89447784423828 L 383.6767272949219 170.5576019287109 L 383.6767272949219 192.0017242431641 L 383.6767272949219 213.4419708251953 L 383.6767272949219 303.1067199707031 C 383.6767272949219 308.6201477050781 383.6767272949219 323.3336791992188 384.4825744628906 331.5362854003906 C 401.9337768554688 331.7936096191406 416.0010986328125 346.0203247070312 416.0010986328125 363.53271484375 L 416.0010986328125 383.9957275390625 C 416.0010986328125 401.6683654785156 401.6749877929688 415.9950866699219 384.0023498535156 415.9957275390625 L 305.6374816894531 415.9987182617188 L 227.2676086425781 415.9987182617188 C 209.594482421875 415.9987182617188 195.2676086425781 401.6718444824219 195.2676086425781 383.9987182617188 L 195.2676086425781 363.53271484375 C 195.2676086425781 346.0208129882812 209.3357696533203 331.7935485839844 226.7876892089844 331.5362548828125 C 227.5935974121094 323.3335571289062 227.5935974121094 308.6201477050781 227.5935974121094 303.1067199707031 L 227.5935974121094 245.4419708251953 L 227.2676086425781 245.4419708251953 L 192.0009765625 245.4419708251953 L 156.7367248535156 245.4419708251953 L 156.4107208251953 245.4419708251953 L 156.4107208251953 303.1067199707031 C 156.4107208251953 308.6201477050781 156.4107360839844 323.3335571289062 157.2166442871094 331.5362548828125 C 174.6678314208984 331.7935791015625 188.7367248535156 346.0203247070312 188.7367248535156 363.53271484375 L 188.7367248535156 383.9987182617188 C 188.7367248535156 392.48583984375 185.3652191162109 400.62646484375 179.3638458251953 406.6277160644531 C 173.3628387451172 412.6284790039062 165.2232360839844 416.0010986328125 156.7366638183594 416.0010986328125 Z" stroke="none" fill="#fff"/>
  </g>
</svg>
