<?xml version="1.0" standalone="no"?>
<!DOCTYPE svg PUBLIC "-//W3C//DTD SVG 20010904//EN"
 "http://www.w3.org/TR/2001/REC-SVG-20010904/DTD/svg10.dtd">
<svg version="1.0" xmlns="http://www.w3.org/2000/svg"
 width="512.000000pt" height="512.000000pt" viewBox="0 0 512.000000 512.000000"
 preserveAspectRatio="xMidYMid meet">
<metadata>
Created by potrace 1.11, written by Peter Selinger 2001-2013
</metadata>
<g transform="translate(0.000000,512.000000) scale(0.100000,-0.100000)"
fill="#000000" stroke="none">
<path d="M640 4381 l0 -98 43 -7 c154 -24 241 -102 267 -241 16 -82 26 -2460
11 -2745 -12 -249 -23 -293 -90 -360 -48 -48 -102 -73 -188 -86 l-43 -7 0 -98
0 -99 785 0 785 0 0 98 0 99 -66 12 c-37 7 -84 21 -104 31 -50 26 -114 99
-129 149 -23 80 -30 253 -31 784 l0 537 681 0 681 0 -5 -612 c-5 -701 -6 -710
-79 -793 -50 -56 -95 -80 -182 -96 l-66 -12 0 -99 0 -98 785 0 785 0 0 99 0
98 -42 7 c-161 25 -244 103 -270 256 -19 109 -19 2811 0 2920 26 153 109 231
270 256 l42 7 0 98 0 99 -785 0 -785 0 0 -98 0 -99 66 -12 c37 -7 84 -21 104
-31 50 -26 114 -99 129 -149 23 -80 30 -253 31 -783 l0 -538 -680 0 -680 0 0
543 c1 529 7 697 32 778 14 50 78 124 128 149 20 10 67 24 104 31 l66 12 0 99
0 98 -785 0 -785 0 0 -99z"/>
</g>
</svg>
